<mxfile host="app.diagrams.net" modified="2024-10-16T14:37:52.508Z" agent="Mozilla/5.0 (Windows NT 10.0; Win64; x64; rv:131.0) Gecko/20100101 Firefox/131.0" etag="qWGMueYcqUYyXj1762iV" version="24.3.1" type="device">
  <diagram name="Page-1" id="yceja91vPHrbYUKH3JmQ">
    <mxGraphModel dx="2616" dy="1034" grid="1" gridSize="10" guides="1" tooltips="1" connect="1" arrows="1" fold="1" page="1" pageScale="1" pageWidth="850" pageHeight="1100" math="0" shadow="0">
      <root>
        <mxCell id="0" />
        <mxCell id="1" parent="0" />
        <mxCell id="ycgvH8pqKXfyrV55E14u-209" value="" style="rounded=1;whiteSpace=wrap;html=1;fillColor=none;dashed=1;dashPattern=12 12;" vertex="1" parent="1">
          <mxGeometry x="80" y="200" width="920" height="450" as="geometry" />
        </mxCell>
        <mxCell id="ycgvH8pqKXfyrV55E14u-173" style="edgeStyle=none;curved=1;rounded=0;orthogonalLoop=1;jettySize=auto;html=1;fontSize=12;startSize=8;endSize=8;endArrow=none;endFill=0;entryX=0.5;entryY=0;entryDx=0;entryDy=0;" edge="1" parent="1" source="ycgvH8pqKXfyrV55E14u-110" target="ycgvH8pqKXfyrV55E14u-166">
          <mxGeometry relative="1" as="geometry">
            <mxPoint x="239.99999999999977" y="520" as="targetPoint" />
          </mxGeometry>
        </mxCell>
        <mxCell id="ycgvH8pqKXfyrV55E14u-179" style="edgeStyle=none;curved=0;rounded=0;orthogonalLoop=1;jettySize=auto;html=1;entryX=0;entryY=0.5;entryDx=0;entryDy=0;fontSize=12;startSize=8;endSize=8;endArrow=none;endFill=0;" edge="1" parent="1" source="ycgvH8pqKXfyrV55E14u-110" target="ycgvH8pqKXfyrV55E14u-161">
          <mxGeometry relative="1" as="geometry" />
        </mxCell>
        <mxCell id="ycgvH8pqKXfyrV55E14u-110" value="&amp;nbsp;&lt;font style=&quot;font-size: 18px;&quot;&gt;Convolution Core&lt;br&gt;&lt;/font&gt;" style="rounded=1;whiteSpace=wrap;html=1;fillColor=#f5f5f5;fontColor=#333333;strokeColor=#666666;" vertex="1" parent="1">
          <mxGeometry x="160" y="360" width="120" height="80" as="geometry" />
        </mxCell>
        <mxCell id="ycgvH8pqKXfyrV55E14u-180" style="edgeStyle=none;curved=1;rounded=0;orthogonalLoop=1;jettySize=auto;html=1;exitX=1;exitY=0.5;exitDx=0;exitDy=0;entryX=0;entryY=0.5;entryDx=0;entryDy=0;fontSize=12;startSize=8;endSize=8;endArrow=none;endFill=0;" edge="1" parent="1" source="ycgvH8pqKXfyrV55E14u-161" target="ycgvH8pqKXfyrV55E14u-162">
          <mxGeometry relative="1" as="geometry" />
        </mxCell>
        <mxCell id="ycgvH8pqKXfyrV55E14u-187" style="edgeStyle=none;curved=1;rounded=0;orthogonalLoop=1;jettySize=auto;html=1;fontSize=12;startSize=8;endSize=8;endArrow=none;endFill=0;" edge="1" parent="1" source="ycgvH8pqKXfyrV55E14u-161">
          <mxGeometry relative="1" as="geometry">
            <mxPoint x="380" y="480" as="targetPoint" />
          </mxGeometry>
        </mxCell>
        <mxCell id="ycgvH8pqKXfyrV55E14u-161" value="&amp;nbsp;&lt;font style=&quot;font-size: 18px;&quot;&gt;Activator&lt;br&gt;&lt;/font&gt;" style="rounded=1;whiteSpace=wrap;html=1;fillColor=#f5f5f5;fontColor=#333333;strokeColor=#666666;" vertex="1" parent="1">
          <mxGeometry x="320" y="360" width="120" height="80" as="geometry" />
        </mxCell>
        <mxCell id="ycgvH8pqKXfyrV55E14u-181" style="edgeStyle=none;curved=1;rounded=0;orthogonalLoop=1;jettySize=auto;html=1;exitX=1;exitY=0.5;exitDx=0;exitDy=0;entryX=0;entryY=0.5;entryDx=0;entryDy=0;fontSize=12;startSize=8;endSize=8;endArrow=none;endFill=0;" edge="1" parent="1" source="ycgvH8pqKXfyrV55E14u-162" target="ycgvH8pqKXfyrV55E14u-163">
          <mxGeometry relative="1" as="geometry" />
        </mxCell>
        <mxCell id="ycgvH8pqKXfyrV55E14u-188" style="edgeStyle=none;curved=0;rounded=0;orthogonalLoop=1;jettySize=auto;html=1;fontSize=12;startSize=8;endSize=8;endArrow=none;endFill=0;" edge="1" parent="1" source="ycgvH8pqKXfyrV55E14u-162">
          <mxGeometry relative="1" as="geometry">
            <mxPoint x="540" y="480" as="targetPoint" />
          </mxGeometry>
        </mxCell>
        <mxCell id="ycgvH8pqKXfyrV55E14u-162" value="&amp;nbsp;&lt;font style=&quot;font-size: 18px;&quot;&gt;Max Pooling&lt;br&gt;&lt;/font&gt;" style="rounded=1;whiteSpace=wrap;html=1;fillColor=#f5f5f5;fontColor=#333333;strokeColor=#666666;" vertex="1" parent="1">
          <mxGeometry x="480" y="360" width="120" height="80" as="geometry" />
        </mxCell>
        <mxCell id="ycgvH8pqKXfyrV55E14u-192" style="edgeStyle=none;curved=1;rounded=0;orthogonalLoop=1;jettySize=auto;html=1;fontSize=12;startSize=8;endSize=8;endArrow=none;endFill=0;" edge="1" parent="1" source="ycgvH8pqKXfyrV55E14u-163">
          <mxGeometry relative="1" as="geometry">
            <mxPoint x="700" y="480" as="targetPoint" />
          </mxGeometry>
        </mxCell>
        <mxCell id="ycgvH8pqKXfyrV55E14u-210" style="edgeStyle=none;curved=1;rounded=0;orthogonalLoop=1;jettySize=auto;html=1;exitX=1;exitY=0.5;exitDx=0;exitDy=0;entryX=0;entryY=0.5;entryDx=0;entryDy=0;fontSize=12;startSize=8;endSize=8;endArrow=none;endFill=0;" edge="1" parent="1" source="ycgvH8pqKXfyrV55E14u-163" target="ycgvH8pqKXfyrV55E14u-190">
          <mxGeometry relative="1" as="geometry" />
        </mxCell>
        <mxCell id="ycgvH8pqKXfyrV55E14u-163" value="&lt;font style=&quot;font-size: 18px;&quot;&gt;Fully Connected&lt;br&gt;&lt;/font&gt;" style="rounded=1;whiteSpace=wrap;html=1;fillColor=#f5f5f5;fontColor=#333333;strokeColor=#666666;" vertex="1" parent="1">
          <mxGeometry x="640" y="360" width="120" height="80" as="geometry" />
        </mxCell>
        <mxCell id="ycgvH8pqKXfyrV55E14u-171" style="edgeStyle=none;curved=0;rounded=0;orthogonalLoop=1;jettySize=auto;html=1;entryX=0.5;entryY=1;entryDx=0;entryDy=0;fontSize=12;startSize=8;endSize=8;endArrow=none;endFill=0;" edge="1" parent="1" target="ycgvH8pqKXfyrV55E14u-190">
          <mxGeometry relative="1" as="geometry">
            <mxPoint x="220" y="480" as="sourcePoint" />
            <Array as="points">
              <mxPoint x="860" y="480" />
            </Array>
          </mxGeometry>
        </mxCell>
        <mxCell id="ycgvH8pqKXfyrV55E14u-199" style="edgeStyle=none;curved=1;rounded=0;orthogonalLoop=1;jettySize=auto;html=1;exitX=1;exitY=0.25;exitDx=0;exitDy=0;fontSize=12;startSize=8;endSize=8;" edge="1" parent="1" source="ycgvH8pqKXfyrV55E14u-166">
          <mxGeometry relative="1" as="geometry">
            <mxPoint x="1163.0769230769235" y="540.3846153846152" as="targetPoint" />
          </mxGeometry>
        </mxCell>
        <mxCell id="ycgvH8pqKXfyrV55E14u-200" style="edgeStyle=none;curved=1;rounded=0;orthogonalLoop=1;jettySize=auto;html=1;exitX=1;exitY=0.75;exitDx=0;exitDy=0;fontSize=12;startSize=8;endSize=8;" edge="1" parent="1" source="ycgvH8pqKXfyrV55E14u-166">
          <mxGeometry relative="1" as="geometry">
            <mxPoint x="1160.0000000000005" y="580.3846153846152" as="targetPoint" />
          </mxGeometry>
        </mxCell>
        <mxCell id="ycgvH8pqKXfyrV55E14u-166" value="&lt;font style=&quot;font-size: 18px;&quot;&gt;FSM&lt;br&gt;&lt;/font&gt;" style="rounded=1;whiteSpace=wrap;html=1;fillColor=#f5f5f5;fontColor=#333333;strokeColor=#666666;" vertex="1" parent="1">
          <mxGeometry x="160" y="520" width="120" height="80" as="geometry" />
        </mxCell>
        <mxCell id="ycgvH8pqKXfyrV55E14u-175" style="edgeStyle=none;curved=0;rounded=0;orthogonalLoop=1;jettySize=auto;html=1;entryX=0.5;entryY=0;entryDx=0;entryDy=0;fontSize=12;startSize=8;endSize=8;endArrow=none;endFill=0;" edge="1" parent="1" source="ycgvH8pqKXfyrV55E14u-168" target="ycgvH8pqKXfyrV55E14u-110">
          <mxGeometry relative="1" as="geometry" />
        </mxCell>
        <mxCell id="ycgvH8pqKXfyrV55E14u-168" value="&amp;nbsp;&lt;font style=&quot;font-size: 18px;&quot;&gt;BRAM (Weights)&lt;br&gt;&lt;/font&gt;" style="rounded=1;whiteSpace=wrap;html=1;fillColor=#d5e8d4;strokeColor=#82b366;" vertex="1" parent="1">
          <mxGeometry x="160" y="240" width="120" height="80" as="geometry" />
        </mxCell>
        <mxCell id="ycgvH8pqKXfyrV55E14u-208" style="edgeStyle=none;curved=1;rounded=0;orthogonalLoop=1;jettySize=auto;html=1;fontSize=12;startSize=8;endSize=8;" edge="1" parent="1" source="ycgvH8pqKXfyrV55E14u-190">
          <mxGeometry relative="1" as="geometry">
            <mxPoint x="1160" y="400" as="targetPoint" />
          </mxGeometry>
        </mxCell>
        <mxCell id="ycgvH8pqKXfyrV55E14u-190" value="&lt;font style=&quot;font-size: 18px;&quot;&gt;SoftMax&lt;br&gt;&lt;/font&gt;" style="rounded=1;whiteSpace=wrap;html=1;fillColor=#f5f5f5;fontColor=#333333;strokeColor=#666666;" vertex="1" parent="1">
          <mxGeometry x="800" y="360" width="120" height="80" as="geometry" />
        </mxCell>
        <mxCell id="ycgvH8pqKXfyrV55E14u-195" style="edgeStyle=none;curved=0;rounded=0;orthogonalLoop=1;jettySize=auto;html=1;entryX=0.341;entryY=-0.007;entryDx=0;entryDy=0;fontSize=12;startSize=8;endSize=8;endArrow=none;endFill=0;entryPerimeter=0;" edge="1" parent="1" source="ycgvH8pqKXfyrV55E14u-193" target="ycgvH8pqKXfyrV55E14u-163">
          <mxGeometry relative="1" as="geometry">
            <Array as="points">
              <mxPoint x="681" y="280" />
            </Array>
          </mxGeometry>
        </mxCell>
        <mxCell id="ycgvH8pqKXfyrV55E14u-193" value="&amp;nbsp;&lt;font style=&quot;font-size: 18px;&quot;&gt;BRAM (Weights)&lt;br&gt;&lt;/font&gt;" style="rounded=1;whiteSpace=wrap;html=1;fillColor=#d5e8d4;strokeColor=#82b366;" vertex="1" parent="1">
          <mxGeometry x="480" y="240" width="160" height="80" as="geometry" />
        </mxCell>
        <mxCell id="ycgvH8pqKXfyrV55E14u-196" style="edgeStyle=none;curved=0;rounded=0;orthogonalLoop=1;jettySize=auto;html=1;entryX=0.666;entryY=-0.043;entryDx=0;entryDy=0;fontSize=12;startSize=8;endSize=8;entryPerimeter=0;endArrow=none;endFill=0;" edge="1" parent="1" source="ycgvH8pqKXfyrV55E14u-194" target="ycgvH8pqKXfyrV55E14u-163">
          <mxGeometry relative="1" as="geometry">
            <Array as="points">
              <mxPoint x="720" y="280" />
            </Array>
          </mxGeometry>
        </mxCell>
        <mxCell id="ycgvH8pqKXfyrV55E14u-194" value="&amp;nbsp;&lt;font style=&quot;font-size: 18px;&quot;&gt;BRAM (Bias)&lt;br&gt;&lt;/font&gt;" style="rounded=1;whiteSpace=wrap;html=1;fillColor=#d5e8d4;strokeColor=#82b366;" vertex="1" parent="1">
          <mxGeometry x="760" y="240" width="160" height="80" as="geometry" />
        </mxCell>
        <mxCell id="ycgvH8pqKXfyrV55E14u-198" value="" style="endArrow=classic;html=1;rounded=0;fontSize=12;startSize=8;endSize=8;curved=1;entryX=0;entryY=0.25;entryDx=0;entryDy=0;" edge="1" parent="1">
          <mxGeometry width="50" height="50" relative="1" as="geometry">
            <mxPoint x="-120" y="559.47" as="sourcePoint" />
            <mxPoint x="160" y="559.47" as="targetPoint" />
          </mxGeometry>
        </mxCell>
        <mxCell id="ycgvH8pqKXfyrV55E14u-201" value="" style="endArrow=classic;html=1;rounded=0;fontSize=12;startSize=8;endSize=8;curved=1;entryX=0;entryY=0.25;entryDx=0;entryDy=0;" edge="1" parent="1">
          <mxGeometry width="50" height="50" relative="1" as="geometry">
            <mxPoint x="-120" y="399.23" as="sourcePoint" />
            <mxPoint x="160" y="399.23" as="targetPoint" />
          </mxGeometry>
        </mxCell>
        <mxCell id="ycgvH8pqKXfyrV55E14u-202" value="" style="endArrow=none;html=1;rounded=0;fontSize=12;startSize=8;endSize=8;curved=1;" edge="1" parent="1">
          <mxGeometry width="50" height="50" relative="1" as="geometry">
            <mxPoint x="100" y="380" as="sourcePoint" />
            <mxPoint x="140" y="420" as="targetPoint" />
          </mxGeometry>
        </mxCell>
        <mxCell id="ycgvH8pqKXfyrV55E14u-203" value="ready" style="text;html=1;align=center;verticalAlign=middle;whiteSpace=wrap;rounded=0;fontSize=16;" vertex="1" parent="1">
          <mxGeometry x="1060" y="510" width="100" height="30" as="geometry" />
        </mxCell>
        <mxCell id="ycgvH8pqKXfyrV55E14u-204" value="done" style="text;html=1;align=center;verticalAlign=middle;whiteSpace=wrap;rounded=0;fontSize=16;" vertex="1" parent="1">
          <mxGeometry x="1060" y="550" width="100" height="30" as="geometry" />
        </mxCell>
        <mxCell id="ycgvH8pqKXfyrV55E14u-205" value="start" style="text;html=1;align=center;verticalAlign=middle;whiteSpace=wrap;rounded=0;fontSize=16;" vertex="1" parent="1">
          <mxGeometry x="-120" y="530" width="100" height="30" as="geometry" />
        </mxCell>
        <mxCell id="ycgvH8pqKXfyrV55E14u-206" value="feature_in" style="text;html=1;align=center;verticalAlign=middle;whiteSpace=wrap;rounded=0;fontSize=16;" vertex="1" parent="1">
          <mxGeometry x="-120" y="370" width="100" height="30" as="geometry" />
        </mxCell>
        <mxCell id="ycgvH8pqKXfyrV55E14u-207" value="class_out" style="text;html=1;align=center;verticalAlign=middle;whiteSpace=wrap;rounded=0;fontSize=16;" vertex="1" parent="1">
          <mxGeometry x="1060" y="370" width="100" height="30" as="geometry" />
        </mxCell>
      </root>
    </mxGraphModel>
  </diagram>
</mxfile>
